# xmcd
#
# Track frame offsets: 
#        150
#        1813
#        50864
#        82773
#        108048
#        156554
#        186329
#        231409
#        262298
#
# Disc length: 3954 seconds
#
# Revision: 0
# Processed by: cddbd v1.5.2PL0 Copyright (c) Steve Scherf et al.
# Submitted via: ExactAudioCopy v0.99pb5
#
DISCID=750f7009
DTITLE=Eric Clapton  - Flawless - Jazz A Vienne 7-5-97 (MVR-384) (Disc
DTITLE=1)
DYEAR=1900
DGENRE=
TTITLE0=Introduction
TTITLE1=Full House
TTITLE2=Marcus #1
TTITLE3=Ruthie
TTITLE4=Snakes
TTITLE5=Going Down Slow
TTITLE6=Peeper
TTITLE7=Suggestions
TTITLE8=Third Degree
EXTD=
EXTT0=
EXTT1=
EXTT2=
EXTT3=
EXTT4=
EXTT5=
EXTT6=
EXTT7=
EXTT8=
PLAYORDER=
